<mxfile host="app.diagrams.net" modified="2024-06-06T18:25:41.626Z" agent="Mozilla/5.0 (Macintosh; Intel Mac OS X 10_15_7) AppleWebKit/537.36 (KHTML, like Gecko) Chrome/125.0.0.0 Safari/537.36" version="24.5.1" etag="pzRaUI4gXZjkRqIf588W" type="github">
  <diagram name="Page-1" id="Jmevz8LIYRj99HKtFAX_">
    <mxGraphModel>
      <root>
        <mxCell id="0" />
        <mxCell id="1" parent="0" />
      </root>
    </mxGraphModel>
  </diagram>
</mxfile>
